<?xml version="1.0" encoding="utf-8"?>
<!-- Generator: Adobe Illustrator 15.0.0, SVG Export Plug-In  -->
<!DOCTYPE svg PUBLIC "-//W3C//DTD SVG 1.1//EN" "http://www.w3.org/Graphics/SVG/1.1/DTD/svg11.dtd" [
	<!ENTITY ns_flows "http://ns.adobe.com/Flows/1.0/">
]>
<svg version="1.1"
	 xmlns="http://www.w3.org/2000/svg" xmlns:xlink="http://www.w3.org/1999/xlink" xmlns:a="http://ns.adobe.com/AdobeSVGViewerExtensions/3.0/"
	 x="0px" y="0px" width="456px" height="269px" viewBox="0 0 456 269" overflow="visible" enable-background="new 0 0 456 269"
	 xml:space="preserve">
<defs>
</defs>
<rect x="190" y="41.669" transform="matrix(-0.5243 0.8515 -0.8515 -0.5243 437.6779 92.5129)" fill-rule="evenodd" clip-rule="evenodd" fill="#FFF100" width="6" height="253.663"/>
<rect x="336.5" y="25.666" transform="matrix(0.9505 0.3107 -0.3107 0.9505 58.2826 -98.8769)" fill-rule="evenodd" clip-rule="evenodd" fill="#FFF100" width="6" height="215.671"/>
<rect x="233" y="-69.621" transform="matrix(-0.3226 -0.9465 0.9465 -0.3226 243.0331 319.9336)" fill-rule="evenodd" clip-rule="evenodd" fill="#FFF100" width="6" height="285.245"/>
<rect y="98" fill-rule="evenodd" clip-rule="evenodd" width="193" height="53"/>
<rect x="147" y="218" fill-rule="evenodd" clip-rule="evenodd" width="294" height="51"/>
<rect x="266" fill-rule="evenodd" clip-rule="evenodd" width="190" height="52"/>
<polygon fill="#FFFFFF" points="10.319,121.001 11.953,121.001 11.953,112.408 16.362,112.408 16.362,121.001 18.003,121.001 
	18.003,111.007 10.319,111.007 "/>
<path fill="#FFFFFF" d="M28.288,119.784c0.813-0.902,1.22-2.167,1.22-3.794c0-1.631-0.406-2.896-1.217-3.794
	c-0.811-0.897-1.96-1.347-3.445-1.347c-1.509,0-2.67,0.442-3.483,1.327c-0.814,0.884-1.22,2.15-1.22,3.8
	c0,1.65,0.404,2.923,1.213,3.818c0.809,0.896,1.968,1.343,3.476,1.343C26.322,121.137,27.474,120.686,28.288,119.784 M21.879,115.99
	c0-1.226,0.25-2.156,0.749-2.789c0.499-0.633,1.238-0.95,2.218-0.95c0.971,0,1.701,0.317,2.191,0.95
	c0.489,0.633,0.735,1.563,0.735,2.789c0,1.244-0.247,2.181-0.742,2.81c-0.495,0.628-1.227,0.943-2.198,0.943
	c-0.975,0-1.711-0.318-2.208-0.954C22.127,118.154,21.879,117.22,21.879,115.99"/>
<path fill="#FFFFFF" d="M37.878,120.239c0.627-0.508,0.94-1.211,0.94-2.109c0-0.666-0.165-1.193-0.495-1.583
	c-0.331-0.389-0.847-0.65-1.549-0.782v-0.069c0.565-0.1,0.998-0.344,1.299-0.731c0.301-0.387,0.451-0.873,0.451-1.456
	c0-0.866-0.306-1.5-0.919-1.901c-0.613-0.4-1.608-0.601-2.984-0.601h-2.967v9.994h3.61C36.38,121.001,37.252,120.747,37.878,120.239
	 M33.288,112.374h1.415c0.738,0,1.277,0.105,1.617,0.315c0.339,0.209,0.509,0.549,0.509,1.018c0,0.52-0.157,0.888-0.472,1.104
	c-0.314,0.216-0.813,0.325-1.497,0.325h-1.572V112.374z M33.288,119.627v-3.165h1.654c0.725,0,1.265,0.125,1.62,0.376
	c0.356,0.25,0.534,0.636,0.534,1.155c0,0.565-0.175,0.979-0.523,1.241c-0.349,0.262-0.865,0.393-1.549,0.393H33.288z"/>
<path fill="#FFFFFF" d="M46.567,120.239c0.64-0.508,0.96-1.256,0.96-2.245c0-0.948-0.327-1.673-0.981-2.174
	c-0.654-0.502-1.605-0.752-2.854-0.752H42.53v-4.061h-1.634V121h2.851C44.987,121,45.926,120.747,46.567,120.239 M42.53,119.641
	v-3.192h0.978c0.856,0,1.463,0.122,1.821,0.365c0.358,0.244,0.537,0.637,0.537,1.18c0,0.574-0.187,0.992-0.561,1.254
	c-0.373,0.262-0.925,0.393-1.654,0.393H42.53z"/>
<rect x="48.928" y="111.007" fill="#FFFFFF" width="1.641" height="9.994"/>
<polygon fill="#FFFFFF" points="65.335,111.007 63.681,111.007 63.681,119.6 60.085,119.6 60.085,111.007 58.431,111.007 
	58.431,119.6 54.835,119.6 54.835,111.007 53.201,111.007 53.201,121.001 65.335,121.001 "/>
<polygon fill="#FFFFFF" points="73.627,119.613 69.607,119.613 69.607,116.475 73.374,116.475 73.374,115.108 69.607,115.108 
	69.607,112.387 73.627,112.387 73.627,111.007 67.974,111.007 67.974,121.001 73.627,121.001 "/>
<polygon fill="#FFFFFF" points="82.028,115.095 77.421,115.095 77.421,111.007 75.787,111.007 75.787,121 77.421,121 
	77.421,116.496 82.028,116.496 82.028,121 83.669,121 83.669,111.007 82.028,111.007 "/>
<path fill="#FFFFFF" d="M87.757,118.971h-0.062c0.014-0.196,0.035-0.571,0.062-1.125c0.027-0.553,0.041-1.101,0.041-1.644v-5.195
	h-1.497V121h1.914l5.127-8.025h0.055c-0.087,1.125-0.13,2.082-0.13,2.871V121h1.504v-9.994h-1.908L87.757,118.971z"/>
<polygon fill="#FFFFFF" points="103.042,119.613 99.022,119.613 99.022,116.475 102.789,116.475 102.789,115.108 99.022,115.108 
	99.022,112.387 103.042,112.387 103.042,111.007 97.389,111.007 97.389,121.001 103.042,121.001 "/>
<polygon fill="#FFFFFF" points="110.473,112.408 114.772,112.408 114.772,111.007 108.839,111.007 108.839,121.001 110.473,121.001 
	"/>
<path fill="#FFFFFF" d="M117.855,118.971h-0.062c0.014-0.196,0.035-0.571,0.062-1.125c0.027-0.553,0.041-1.101,0.041-1.644v-5.195
	h-1.497V121h1.914l5.127-8.025h0.055c-0.087,1.125-0.13,2.082-0.13,2.871V121h1.504v-9.994h-1.908L117.855,118.971z"/>
<path fill="#FFFFFF" d="M130.311,115.068h-1.189v-2.66h4.463v-1.401h-6.097V121h2.905c2.57,0,3.856-1.002,3.856-3.008
	C134.249,116.042,132.936,115.068,130.311,115.068 M132.02,119.241c-0.365,0.257-0.939,0.386-1.723,0.386h-1.175v-3.192h0.977
	c0.912,0,1.551,0.122,1.918,0.366c0.366,0.243,0.55,0.641,0.55,1.192C132.566,118.568,132.384,118.984,132.02,119.241"/>
<polygon fill="#FFFFFF" points="143.709,111.007 141.918,111.007 137.871,115.847 137.871,111.007 136.237,111.007 136.237,121.001 
	137.871,121.001 137.871,115.936 141.986,121.001 143.907,121.001 139.676,115.833 "/>
<path fill="#FFFFFF" d="M149.438,110.85c-1.508,0-2.67,0.442-3.483,1.326c-0.813,0.884-1.22,2.151-1.22,3.801
	c0,1.65,0.404,2.922,1.213,3.818c0.809,0.895,1.968,1.343,3.476,1.343c1.49,0,2.642-0.451,3.456-1.354
	c0.813-0.902,1.22-2.167,1.22-3.794c0-1.631-0.406-2.896-1.217-3.794C152.072,111.299,150.922,110.85,149.438,110.85 M151.622,118.8
	c-0.495,0.629-1.227,0.943-2.198,0.943c-0.975,0-1.711-0.318-2.208-0.953c-0.497-0.636-0.745-1.569-0.745-2.8
	c0-1.226,0.25-2.155,0.749-2.789c0.499-0.633,1.238-0.95,2.218-0.95c0.971,0,1.701,0.317,2.191,0.95
	c0.49,0.634,0.735,1.563,0.735,2.789C152.364,117.235,152.117,118.171,151.622,118.8"/>
<path fill="#FFFFFF" d="M160.3,121.138c0.994,0,1.882-0.148,2.666-0.444v-1.402c-0.428,0.133-0.841,0.241-1.237,0.325
	c-0.397,0.084-0.807,0.126-1.231,0.126c-0.98,0-1.728-0.314-2.245-0.943s-0.776-1.556-0.776-2.782c0-1.172,0.269-2.089,0.806-2.755
	c0.538-0.666,1.276-0.998,2.215-0.998c0.415,0,0.81,0.06,1.186,0.181s0.733,0.261,1.07,0.421l0.588-1.361
	c-0.866-0.428-1.809-0.642-2.83-0.642c-0.971,0-1.816,0.207-2.536,0.622c-0.72,0.414-1.271,1.011-1.651,1.791
	c-0.38,0.779-0.571,1.688-0.571,2.727c0,1.65,0.392,2.918,1.176,3.804C157.714,120.695,158.837,121.138,160.3,121.138"/>
<polygon fill="#FFFFFF" points="166.938,121.001 168.571,121.001 168.571,112.408 171.511,112.408 171.511,111.007 163.999,111.007 
	163.999,112.408 166.938,112.408 "/>
<path fill="#FFFFFF" d="M180.083,112.976h0.055c-0.087,1.125-0.13,2.083-0.13,2.871V121h1.504v-9.994h-1.908l-5.106,7.964h-0.061
	c0.013-0.196,0.034-0.571,0.061-1.124c0.027-0.554,0.041-1.102,0.041-1.644v-5.196h-1.497V121h1.914L180.083,112.976z"/>
<path fill="#FFFFFF" d="M15.44,132.565v-0.069c0.565-0.1,0.998-0.343,1.298-0.731c0.301-0.387,0.452-0.873,0.452-1.456
	c0-0.866-0.307-1.499-0.92-1.9c-0.613-0.401-1.607-0.602-2.984-0.602H10.32v9.994h3.609c1.117,0,1.988-0.254,2.615-0.762
	c0.626-0.508,0.94-1.211,0.94-2.108c0-0.666-0.165-1.193-0.496-1.583C16.657,132.958,16.141,132.697,15.44,132.565 M11.953,129.174
	h1.415c0.739,0,1.278,0.105,1.617,0.315s0.509,0.549,0.509,1.018c0,0.52-0.157,0.888-0.471,1.105
	c-0.315,0.216-0.814,0.324-1.497,0.324h-1.573V129.174z M15.238,136.034c-0.349,0.262-0.865,0.393-1.548,0.393h-1.737v-3.165h1.655
	c0.724,0,1.264,0.126,1.62,0.376c0.355,0.251,0.533,0.636,0.533,1.155C15.761,135.359,15.587,135.772,15.238,136.034"/>
<polygon fill="#FFFFFF" points="23.198,137.801 24.832,137.801 24.832,129.208 29.241,129.208 29.241,137.801 30.882,137.801 
	30.882,127.807 23.198,127.807 "/>
<polygon fill="#FFFFFF" points="33.514,137.801 39.167,137.801 39.167,136.413 35.147,136.413 35.147,133.276 38.914,133.276 
	38.914,131.908 35.147,131.908 35.147,129.188 39.167,129.188 39.167,127.807 33.514,127.807 "/>
<path fill="#FFFFFF" d="M44.205,127.807h-2.878v9.994h1.634v-3.739H44c1.262,0,2.236-0.278,2.919-0.834
	c0.684-0.556,1.026-1.356,1.026-2.4c0-0.993-0.312-1.745-0.934-2.256C46.389,128.062,45.454,127.807,44.205,127.807 M45.675,132.25
	c-0.392,0.292-1.007,0.437-1.846,0.437h-0.868v-3.513h1.135c0.743,0,1.289,0.141,1.641,0.424c0.351,0.282,0.526,0.711,0.526,1.285
	C46.263,131.503,46.067,131.958,45.675,132.25"/>
<polygon fill="#FFFFFF" points="49.94,137.801 55.593,137.801 55.593,136.413 51.574,136.413 51.574,133.276 55.34,133.276 
	55.34,131.908 51.574,131.908 51.574,129.188 55.593,129.188 55.593,127.807 49.94,127.807 "/>
<polygon fill="#FFFFFF" points="57.754,137.801 59.388,137.801 59.388,129.208 63.688,129.208 63.688,127.807 57.754,127.807 "/>
<path fill="#FFFFFF" d="M69.525,127.649c-1.508,0-2.67,0.442-3.483,1.326c-0.813,0.884-1.22,2.151-1.22,3.801
	c0,1.649,0.404,2.923,1.213,3.817c0.809,0.896,1.968,1.344,3.476,1.344c1.49,0,2.642-0.451,3.456-1.354
	c0.813-0.902,1.22-2.167,1.22-3.794c0-1.631-0.406-2.896-1.217-3.794C72.16,128.099,71.012,127.649,69.525,127.649 M71.709,135.6
	c-0.495,0.629-1.227,0.942-2.198,0.942c-0.975,0-1.711-0.317-2.208-0.953c-0.496-0.636-0.745-1.569-0.745-2.8
	c0-1.225,0.25-2.155,0.749-2.789c0.499-0.633,1.238-0.95,2.218-0.95c0.971,0,1.701,0.317,2.191,0.95
	c0.49,0.634,0.735,1.564,0.735,2.789C72.452,134.035,72.205,134.97,71.709,135.6"/>
<path fill="#FFFFFF" d="M81.455,132.565v-0.069c0.565-0.1,0.998-0.343,1.298-0.731c0.301-0.387,0.452-0.873,0.452-1.456
	c0-0.866-0.307-1.499-0.92-1.9c-0.613-0.401-1.608-0.602-2.984-0.602h-2.966v9.994h3.609c1.117,0,1.988-0.254,2.615-0.762
	c0.626-0.508,0.94-1.211,0.94-2.108c0-0.666-0.165-1.193-0.496-1.583C82.671,132.958,82.155,132.697,81.455,132.565 M77.967,129.174
	h1.415c0.739,0,1.278,0.105,1.617,0.315c0.339,0.21,0.509,0.549,0.509,1.018c0,0.52-0.157,0.888-0.471,1.105
	c-0.315,0.216-0.814,0.324-1.497,0.324h-1.573V129.174z M81.252,136.034c-0.349,0.262-0.865,0.393-1.548,0.393h-1.737v-3.165h1.655
	c0.724,0,1.264,0.126,1.62,0.376c0.355,0.251,0.533,0.636,0.533,1.155C81.775,135.359,81.602,135.772,81.252,136.034"/>
<path fill="#FFFFFF" d="M89.787,127.649c-1.508,0-2.67,0.442-3.483,1.326c-0.813,0.884-1.22,2.151-1.22,3.801
	c0,1.649,0.404,2.923,1.213,3.817c0.809,0.896,1.968,1.344,3.476,1.344c1.49,0,2.642-0.451,3.456-1.354
	c0.813-0.902,1.22-2.167,1.22-3.794c0-1.631-0.406-2.896-1.217-3.794C92.421,128.099,91.273,127.649,89.787,127.649 M91.971,135.6
	c-0.495,0.629-1.227,0.942-2.198,0.942c-0.975,0-1.711-0.317-2.208-0.953c-0.497-0.636-0.745-1.569-0.745-2.8
	c0-1.225,0.25-2.155,0.749-2.789c0.499-0.633,1.238-0.95,2.218-0.95c0.971,0,1.701,0.317,2.191,0.95
	c0.49,0.634,0.735,1.564,0.735,2.789C92.713,134.035,92.466,134.97,91.971,135.6"/>
<path fill="#FFFFFF" d="M99.474,127.807h-2.878v9.994h1.634v-3.739h1.039c1.262,0,2.236-0.278,2.919-0.834
	c0.684-0.556,1.026-1.356,1.026-2.4c0-0.993-0.312-1.745-0.934-2.256C101.657,128.062,100.722,127.807,99.474,127.807
	 M100.943,132.25c-0.392,0.292-1.007,0.437-1.846,0.437h-0.868v-3.513h1.135c0.743,0,1.289,0.141,1.641,0.424
	c0.351,0.282,0.526,0.711,0.526,1.285C101.531,131.503,101.335,131.958,100.943,132.25"/>
<path fill="#FFFFFF" d="M107.629,127.765l-3.74,10.036h1.723l0.977-2.776h3.822l0.998,2.776h1.736l-3.739-10.036H107.629z
	 M107.068,133.617l0.902-2.604c0.237-0.666,0.417-1.279,0.54-1.839c0.046,0.182,0.129,0.469,0.25,0.861
	c0.12,0.392,0.215,0.679,0.284,0.861l0.936,2.721H107.068z"/>
<polygon fill="#FFFFFF" points="121.588,127.807 119.824,127.807 117.514,131.586 115.203,127.807 113.385,127.807 116.488,132.619 
	113.173,137.8 114.923,137.8 117.445,133.712 119.947,137.8 121.827,137.8 118.464,132.646 "/>
<polygon fill="#FFFFFF" points="164.201,240.001 164.201,230.007 162.56,230.007 162.56,234.095 157.953,234.095 157.953,230.007 
	156.319,230.007 156.319,240.001 157.953,240.001 157.953,235.496 162.56,235.496 162.56,240.001 "/>
<path fill="#FFFFFF" d="M169.253,229.965l-3.74,10.036h1.723l0.977-2.776h3.822l0.998,2.776h1.736l-3.739-10.036H169.253z
	 M168.692,235.818l0.902-2.604c0.237-0.666,0.417-1.279,0.54-1.839c0.046,0.182,0.129,0.469,0.25,0.861
	c0.12,0.392,0.215,0.679,0.284,0.86l0.936,2.722H168.692z"/>
<path fill="#FFFFFF" d="M179.732,235.401c-0.109,0.26-0.178,0.448-0.205,0.566h-0.068c-0.051-0.159-0.185-0.476-0.404-0.95
	l-2.44-5.011h-1.764l3.685,7.322c-0.228,0.529-0.482,0.894-0.762,1.097c-0.281,0.203-0.628,0.304-1.043,0.304
	c-0.488,0-0.955-0.089-1.401-0.266v1.469c0.451,0.138,0.941,0.205,1.469,0.205c0.606,0,1.122-0.091,1.549-0.272
	c0.426-0.183,0.801-0.469,1.124-0.858c0.324-0.39,0.679-1.02,1.067-1.89l3.151-7.11h-1.709L179.732,235.401z"/>
<path fill="#FFFFFF" d="M187.594,236.624c0.487,0,0.972-0.048,1.453-0.144c0.481-0.095,1.028-0.252,1.644-0.471v3.992h1.64v-9.994
	h-1.64v4.688c-0.584,0.196-1.08,0.334-1.491,0.414c-0.41,0.079-0.831,0.119-1.264,0.119c-0.588,0-1.011-0.127-1.268-0.382
	c-0.258-0.256-0.386-0.644-0.386-1.162v-3.678h-1.641v4.06c0,0.816,0.256,1.446,0.769,1.891S186.651,236.624,187.594,236.624"/>
<path fill="#FFFFFF" d="M196.419,237.971h-0.062c0.014-0.196,0.035-0.571,0.062-1.125s0.041-1.102,0.041-1.645v-5.195h-1.497V240
	h1.914l5.127-8.024h0.055c-0.087,1.125-0.13,2.082-0.13,2.871V240h1.504v-9.994h-1.908L196.419,237.971z"/>
<polygon fill="#FFFFFF" points="207.869,240.001 209.503,240.001 209.503,231.408 212.442,231.408 212.442,230.007 204.93,230.007 
	204.93,231.408 207.869,231.408 "/>
<polygon fill="#FFFFFF" points="219.627,238.614 215.607,238.614 215.607,235.475 219.374,235.475 219.374,234.108 215.607,234.108 
	215.607,231.387 219.627,231.387 219.627,230.007 213.974,230.007 213.974,240.001 219.627,240.001 "/>
<path fill="#FFFFFF" d="M226.039,238.744c-0.98,0-1.729-0.314-2.246-0.943s-0.775-1.557-0.775-2.783
	c0-1.171,0.269-2.089,0.806-2.754c0.538-0.666,1.276-0.999,2.215-0.999c0.415,0,0.81,0.062,1.186,0.182
	c0.377,0.12,0.732,0.261,1.07,0.421l0.588-1.36c-0.865-0.429-1.81-0.644-2.83-0.644c-0.971,0-1.816,0.208-2.536,0.622
	c-0.721,0.415-1.271,1.013-1.651,1.791c-0.381,0.78-0.571,1.689-0.571,2.729c0,1.649,0.392,2.918,1.176,3.804
	c0.783,0.886,1.907,1.33,3.37,1.33c0.993,0,1.882-0.147,2.666-0.445v-1.4c-0.428,0.132-0.841,0.239-1.237,0.325
	C226.873,238.702,226.463,238.744,226.039,238.744"/>
<path fill="#FFFFFF" d="M236.618,234.823c-0.673-0.503-1.643-0.755-2.909-0.755h-1.415v-4.062h-1.634V240h3.117
	c1.248,0,2.202-0.256,2.86-0.769c0.659-0.513,0.988-1.259,0.988-2.239C237.626,236.049,237.29,235.326,236.618,234.823
	 M235.36,238.241c-0.395,0.257-0.958,0.386-1.692,0.386h-1.374v-3.191h1.19c0.888,0,1.521,0.125,1.899,0.376
	s0.567,0.645,0.567,1.182C235.951,237.568,235.754,237.984,235.36,238.241"/>
<path fill="#FFFFFF" d="M250.915,231.196c-0.812-0.896-1.959-1.346-3.445-1.346c-1.509,0-2.67,0.441-3.483,1.326
	c-0.812,0.884-1.22,2.15-1.22,3.801c0,1.649,0.404,2.922,1.213,3.817c0.81,0.896,1.969,1.344,3.477,1.344
	c1.489,0,2.642-0.451,3.456-1.354c0.812-0.902,1.22-2.167,1.22-3.794C252.132,233.359,251.726,232.094,250.915,231.196
	 M249.654,237.799c-0.495,0.63-1.228,0.943-2.198,0.943c-0.976,0-1.711-0.318-2.208-0.953c-0.496-0.636-0.745-1.568-0.745-2.8
	c0-1.226,0.25-2.155,0.749-2.789c0.499-0.633,1.238-0.95,2.218-0.95c0.971,0,1.701,0.317,2.191,0.95
	c0.489,0.634,0.734,1.563,0.734,2.789C250.396,236.235,250.148,237.17,249.654,237.799"/>
<polygon fill="#FFFFFF" points="261.962,240.001 261.962,230.007 254.278,230.007 254.278,240.001 255.912,240.001 255.912,231.408 
	260.321,231.408 260.321,240.001 "/>
<path fill="#FFFFFF" d="M266.228,236.262h1.039c1.262,0,2.235-0.278,2.919-0.834c0.684-0.557,1.025-1.356,1.025-2.4
	c0-0.993-0.312-1.745-0.934-2.256c-0.622-0.51-1.557-0.765-2.806-0.765h-2.878v9.994h1.634V236.262z M266.228,231.374h1.135
	c0.742,0,1.289,0.142,1.641,0.425c0.351,0.282,0.526,0.711,0.526,1.285c0,0.619-0.195,1.075-0.588,1.366
	c-0.392,0.292-1.007,0.438-1.846,0.438h-0.868V231.374z"/>
<polygon fill="#FFFFFF" points="278.86,238.614 274.841,238.614 274.841,235.475 278.607,235.475 278.607,234.108 274.841,234.108 
	274.841,231.387 278.86,231.387 278.86,230.007 273.207,230.007 273.207,240.001 278.86,240.001 "/>
<path fill="#FFFFFF" d="M289.531,242.755V238.6h-1.292v-8.594h-5.161c-0.128,1.514-0.415,3.022-0.861,4.526s-1,2.859-1.661,4.067
	h-0.772v4.155h1.572V240h6.604v2.755H289.531z M286.605,238.6h-4.327c0.524-1.021,0.991-2.215,1.401-3.579s0.666-2.564,0.766-3.6
	h2.16V238.6z"/>
<polygon fill="#FFFFFF" points="296.798,231.388 296.798,230.006 291.145,230.006 291.145,240 296.798,240 296.798,238.614 
	292.778,238.614 292.778,235.476 296.545,235.476 296.545,234.109 292.778,234.109 292.778,231.388 "/>
<path fill="#FFFFFF" d="M304.823,240.001h1.634v-9.994h-5.838c-0.305,2.374-0.568,4.235-0.79,5.585
	c-0.221,1.349-0.423,2.221-0.608,2.615c-0.185,0.394-0.44,0.591-0.769,0.591c-0.246,0-0.499-0.058-0.759-0.171v1.359
	c0.301,0.114,0.617,0.171,0.95,0.171c0.646,0.015,1.167-0.185,1.559-0.598s0.696-1.146,0.913-2.198
	c0.216-1.052,0.504-3.037,0.864-5.954h2.844V240.001z"/>
<path fill="#FFFFFF" d="M309.766,230.731c-0.634,0.483-0.95,1.183-0.95,2.099c0,1.419,0.639,2.348,1.914,2.789l-2.816,4.383h1.866
	l2.475-4.007h1.668v4.007h1.641v-9.994h-3.001C311.331,230.007,310.398,230.249,309.766,230.731 M313.922,231.374v3.269h-1.244
	c-0.748,0-1.299-0.151-1.654-0.452c-0.355-0.3-0.533-0.72-0.533-1.257c0-0.552,0.184-0.95,0.551-1.193
	c0.366-0.244,0.894-0.366,1.582-0.366H313.922z"/>
<polygon fill="#FFFFFF" points="320.013,240.001 321.646,240.001 321.646,231.408 324.586,231.408 324.586,230.007 317.073,230.007 
	317.073,231.408 320.013,231.408 "/>
<path fill="#FFFFFF" d="M333.083,236.993c0-0.943-0.336-1.667-1.008-2.17c-0.673-0.503-1.643-0.755-2.909-0.755h-1.415v-4.062
	h-1.634V240h3.117c1.248,0,2.202-0.256,2.86-0.769C332.754,238.719,333.083,237.973,333.083,236.993 M330.816,238.241
	c-0.394,0.257-0.957,0.386-1.691,0.386h-1.374v-3.191h1.189c0.889,0,1.522,0.125,1.9,0.376s0.567,0.645,0.567,1.182
	C331.408,237.568,331.211,237.984,330.816,238.241"/>
<path fill="#FFFFFF" d="M157.775,254.77h-0.062c0.014-0.195,0.035-0.57,0.062-1.125c0.027-0.553,0.041-1.101,0.041-1.644v-5.195
	h-1.497v9.994h1.914l5.127-8.024h0.055c-0.087,1.126-0.13,2.083-0.13,2.871v5.153h1.504v-9.994h-1.908L157.775,254.77z"/>
<path fill="#FFFFFF" d="M171.659,248.064c0.415,0,0.81,0.062,1.186,0.182c0.376,0.121,0.732,0.261,1.07,0.421l0.588-1.361
	c-0.866-0.428-1.81-0.642-2.83-0.642c-0.971,0-1.817,0.207-2.536,0.622c-0.721,0.415-1.271,1.011-1.651,1.791
	c-0.381,0.778-0.571,1.688-0.571,2.727c0,1.65,0.392,2.918,1.176,3.805c0.783,0.887,1.907,1.329,3.37,1.329
	c0.993,0,1.882-0.147,2.666-0.443v-1.402c-0.428,0.133-0.841,0.241-1.238,0.325c-0.396,0.085-0.806,0.127-1.23,0.127
	c-0.98,0-1.729-0.315-2.246-0.944s-0.775-1.556-0.775-2.781c0-1.172,0.268-2.09,0.806-2.756
	C169.982,248.397,170.72,248.064,171.659,248.064"/>
<polygon fill="#FFFFFF" points="175.159,248.208 178.098,248.208 178.098,256.801 179.732,256.801 179.732,248.208 182.672,248.208 
	182.672,246.807 175.159,246.807 "/>
<path fill="#FFFFFF" d="M185.659,254.77h-0.062c0.014-0.195,0.035-0.57,0.062-1.125c0.027-0.553,0.041-1.101,0.041-1.644v-5.195
	h-1.497v9.994h1.914l5.127-8.024h0.055c-0.087,1.126-0.13,2.083-0.13,2.871v5.153h1.504v-9.994h-1.908L185.659,254.77z"/>
<polygon fill="#FFFFFF" points="201.532,250.895 196.925,250.895 196.925,246.807 195.291,246.807 195.291,256.801 196.925,256.801 
	196.925,252.296 201.532,252.296 201.532,256.801 203.173,256.801 203.173,246.807 201.532,246.807 "/>
<polygon fill="#FFFFFF" points="212.046,250.895 207.439,250.895 207.439,246.807 205.805,246.807 205.805,256.801 207.439,256.801 
	207.439,252.296 212.046,252.296 212.046,256.801 213.687,256.801 213.687,246.807 212.046,246.807 "/>
<path fill="#FFFFFF" d="M221.969,251.62c-0.654-0.501-1.606-0.752-2.854-0.752h-1.162v-4.062h-1.634v9.994h2.85
	c1.24,0,2.18-0.253,2.82-0.762c0.64-0.508,0.961-1.256,0.961-2.245C222.95,252.845,222.623,252.121,221.969,251.62 M220.728,255.047
	c-0.374,0.262-0.925,0.395-1.654,0.395h-1.121v-3.193h0.977c0.857,0,1.464,0.122,1.822,0.365c0.358,0.245,0.537,0.638,0.537,1.18
	C221.289,254.368,221.102,254.786,220.728,255.047"/>
<rect x="224.351" y="246.807" fill="#FFFFFF" width="1.641" height="9.994"/>
<polygon fill="#FFFFFF" points="228.623,256.801 234.276,256.801 234.276,255.413 230.257,255.413 230.257,252.276 234.023,252.276 
	234.023,250.908 230.257,250.908 230.257,248.188 234.276,248.188 234.276,246.807 228.623,246.807 "/>
<path fill="#FFFFFF" d="M241.529,254.77h-0.062c0.015-0.195,0.035-0.57,0.062-1.125c0.027-0.553,0.041-1.101,0.041-1.644v-5.195
	h-1.497v9.994h1.914l5.127-8.024h0.055c-0.087,1.126-0.13,2.083-0.13,2.871v5.153h1.504v-9.994h-1.907L241.529,254.77z"/>
<polygon fill="#FFFFFF" points="257.402,250.895 252.795,250.895 252.795,246.807 251.161,246.807 251.161,256.801 252.795,256.801 
	252.795,252.296 257.402,252.296 257.402,256.801 259.043,256.801 259.043,246.807 257.402,246.807 "/>
<polygon fill="#FFFFFF" points="260.554,248.208 263.493,248.208 263.493,256.801 265.127,256.801 265.127,248.208 268.066,248.208 
	268.066,246.807 260.554,246.807 "/>
<polygon fill="#FFFFFF" points="269.598,256.801 275.251,256.801 275.251,255.413 271.231,255.413 271.231,252.276 274.998,252.276 
	274.998,250.908 271.231,250.908 271.231,248.188 275.251,248.188 275.251,246.807 269.598,246.807 "/>
<path fill="#FFFFFF" d="M280.289,246.807h-2.878v9.994h1.634v-3.739h1.039c1.262,0,2.235-0.278,2.919-0.834s1.025-1.356,1.025-2.4
	c0-0.992-0.312-1.745-0.934-2.256C282.473,247.062,281.538,246.807,280.289,246.807 M281.759,251.25
	c-0.392,0.292-1.007,0.437-1.846,0.437h-0.868v-3.513h1.135c0.743,0,1.289,0.141,1.641,0.424c0.352,0.282,0.526,0.711,0.526,1.285
	C282.347,250.503,282.15,250.958,281.759,251.25"/>
<polygon fill="#FFFFFF" points="286.024,256.801 291.678,256.801 291.678,255.413 287.658,255.413 287.658,252.276 291.425,252.276 
	291.425,250.908 287.658,250.908 287.658,248.188 291.678,248.188 291.678,246.807 286.024,246.807 "/>
<path fill="#FFFFFF" d="M298.09,248.064c0.415,0,0.81,0.062,1.186,0.182c0.376,0.121,0.732,0.261,1.07,0.421l0.588-1.361
	c-0.866-0.428-1.809-0.642-2.83-0.642c-0.971,0-1.815,0.207-2.536,0.622s-1.271,1.011-1.65,1.791
	c-0.381,0.778-0.571,1.688-0.571,2.727c0,1.65,0.393,2.918,1.176,3.805s1.907,1.329,3.37,1.329c0.993,0,1.882-0.147,2.666-0.443
	v-1.402c-0.428,0.133-0.841,0.241-1.238,0.325c-0.396,0.085-0.806,0.127-1.229,0.127c-0.98,0-1.729-0.315-2.246-0.944
	s-0.775-1.556-0.775-2.781c0-1.172,0.27-2.09,0.807-2.756C296.413,248.397,297.15,248.064,298.09,248.064"/>
<path fill="#FFFFFF" d="M308.361,251.62c-0.654-0.501-1.606-0.752-2.854-0.752h-1.162v-4.062h-1.634v9.994h2.851
	c1.239,0,2.18-0.253,2.819-0.762c0.641-0.508,0.961-1.256,0.961-2.245C309.342,252.845,309.015,252.121,308.361,251.62
	 M307.12,255.047c-0.374,0.262-0.925,0.395-1.654,0.395h-1.121v-3.193h0.978c0.856,0,1.464,0.122,1.822,0.365
	c0.357,0.245,0.536,0.638,0.536,1.18C307.681,254.368,307.494,254.786,307.12,255.047"/>
<rect x="310.743" y="246.807" fill="#FFFFFF" width="1.641" height="9.994"/>
<path fill="#FFFFFF" d="M323.772,251.565v-0.069c0.565-0.1,0.998-0.343,1.298-0.73c0.302-0.388,0.452-0.873,0.452-1.456
	c0-0.866-0.307-1.499-0.92-1.9c-0.612-0.401-1.606-0.602-2.983-0.602h-2.967v9.993h3.609c1.117,0,1.988-0.254,2.615-0.762
	c0.626-0.508,0.939-1.211,0.939-2.108c0-0.665-0.165-1.193-0.496-1.583C324.99,251.958,324.474,251.697,323.772,251.565
	 M320.286,248.173h1.415c0.738,0,1.277,0.105,1.616,0.315c0.34,0.21,0.51,0.549,0.51,1.018c0,0.521-0.157,0.889-0.472,1.104
	c-0.314,0.217-0.813,0.325-1.497,0.325h-1.572V248.173z M323.57,255.034c-0.349,0.262-0.864,0.393-1.548,0.393h-1.736v-3.164h1.654
	c0.725,0,1.265,0.126,1.62,0.376c0.355,0.251,0.533,0.636,0.533,1.154C324.094,254.359,323.92,254.772,323.57,255.034"/>
<polygon fill="#FFFFFF" points="331.531,256.801 333.165,256.801 333.165,248.208 337.574,248.208 337.574,256.801 339.215,256.801 
	339.215,246.807 331.531,246.807 "/>
<polygon fill="#FFFFFF" points="341.847,256.801 347.5,256.801 347.5,255.413 343.48,255.413 343.48,252.276 347.247,252.276 
	347.247,250.908 343.48,250.908 343.48,248.188 347.5,248.188 347.5,246.807 341.847,246.807 "/>
<path fill="#FFFFFF" d="M352.538,246.807h-2.878v9.994h1.634v-3.739h1.039c1.262,0,2.235-0.278,2.919-0.834s1.025-1.356,1.025-2.4
	c0-0.992-0.312-1.745-0.934-2.256C354.722,247.062,353.787,246.807,352.538,246.807 M354.008,251.25
	c-0.392,0.292-1.007,0.437-1.846,0.437h-0.868v-3.513h1.135c0.743,0,1.289,0.141,1.641,0.424c0.352,0.282,0.526,0.711,0.526,1.285
	C354.596,250.503,354.399,250.958,354.008,251.25"/>
<polygon fill="#FFFFFF" points="358.273,256.801 363.927,256.801 363.927,255.413 359.907,255.413 359.907,252.276 363.674,252.276 
	363.674,250.908 359.907,250.908 359.907,248.188 363.927,248.188 363.927,246.807 358.273,246.807 "/>
<polygon fill="#FFFFFF" points="366.087,256.801 367.721,256.801 367.721,248.208 372.021,248.208 372.021,246.807 366.087,246.807 
	"/>
<path fill="#FFFFFF" d="M377.858,246.65c-1.508,0-2.67,0.441-3.483,1.326c-0.812,0.884-1.22,2.15-1.22,3.801
	c0,1.649,0.404,2.923,1.213,3.817c0.81,0.896,1.968,1.344,3.477,1.344c1.49,0,2.642-0.451,3.456-1.354
	c0.812-0.902,1.22-2.167,1.22-3.794c0-1.631-0.406-2.896-1.217-3.794C380.492,247.098,379.344,246.65,377.858,246.65 M380.043,254.6
	c-0.495,0.629-1.228,0.942-2.198,0.942c-0.976,0-1.711-0.317-2.208-0.953s-0.745-1.568-0.745-2.8c0-1.225,0.25-2.155,0.749-2.789
	c0.499-0.633,1.238-0.95,2.218-0.95c0.971,0,1.701,0.317,2.191,0.95c0.489,0.634,0.734,1.564,0.734,2.789
	C380.784,253.035,380.537,253.97,380.043,254.6"/>
<path fill="#FFFFFF" d="M389.787,251.565v-0.069c0.565-0.1,0.998-0.343,1.298-0.73c0.302-0.388,0.452-0.873,0.452-1.456
	c0-0.866-0.307-1.499-0.92-1.9s-1.606-0.602-2.983-0.602h-2.967v9.993h3.609c1.117,0,1.988-0.254,2.615-0.762
	c0.626-0.508,0.939-1.211,0.939-2.108c0-0.665-0.165-1.193-0.496-1.583S390.488,251.697,389.787,251.565 M386.301,248.173h1.415
	c0.738,0,1.277,0.105,1.616,0.315c0.34,0.21,0.51,0.549,0.51,1.018c0,0.521-0.157,0.889-0.472,1.104
	c-0.314,0.217-0.813,0.325-1.497,0.325h-1.572V248.173z M389.585,255.034c-0.349,0.262-0.864,0.393-1.548,0.393h-1.736v-3.164h1.654
	c0.725,0,1.265,0.126,1.62,0.376c0.355,0.251,0.533,0.636,0.533,1.154C390.108,254.359,389.935,254.772,389.585,255.034"/>
<path fill="#FFFFFF" d="M398.12,246.65c-1.508,0-2.67,0.441-3.483,1.326c-0.812,0.884-1.22,2.15-1.22,3.801
	c0,1.649,0.404,2.923,1.213,3.817c0.81,0.896,1.968,1.344,3.477,1.344c1.489,0,2.642-0.451,3.456-1.354
	c0.812-0.902,1.22-2.167,1.22-3.794c0-1.631-0.406-2.896-1.217-3.794C400.754,247.098,399.606,246.65,398.12,246.65 M400.305,254.6
	c-0.495,0.629-1.228,0.942-2.198,0.942c-0.976,0-1.711-0.317-2.208-0.953c-0.496-0.636-0.745-1.568-0.745-2.8
	c0-1.225,0.25-2.155,0.749-2.789c0.499-0.633,1.238-0.95,2.218-0.95c0.971,0,1.701,0.317,2.191,0.95
	c0.489,0.634,0.734,1.564,0.734,2.789C401.046,253.035,400.799,253.97,400.305,254.6"/>
<path fill="#FFFFFF" d="M407.807,246.807h-2.878v9.994h1.634v-3.739h1.039c1.262,0,2.235-0.278,2.919-0.834s1.026-1.356,1.026-2.4
	c0-0.992-0.312-1.745-0.935-2.256C409.99,247.062,409.056,246.807,407.807,246.807 M409.276,251.25
	c-0.392,0.292-1.007,0.437-1.846,0.437h-0.868v-3.513h1.135c0.743,0,1.289,0.141,1.641,0.424c0.352,0.282,0.526,0.711,0.526,1.285
	C409.864,250.503,409.668,250.958,409.276,251.25"/>
<path fill="#FFFFFF" d="M415.962,246.765l-3.739,10.036h1.723l0.978-2.776h3.821l0.998,2.776h1.736l-3.739-10.036H415.962z
	 M415.401,252.618l0.902-2.604c0.236-0.666,0.417-1.279,0.54-1.839c0.046,0.182,0.129,0.469,0.25,0.861
	c0.119,0.392,0.215,0.679,0.283,0.86l0.937,2.722H415.401z"/>
<polygon fill="#FFFFFF" points="429.921,246.806 428.157,246.806 425.847,250.586 423.536,246.806 421.718,246.806 424.821,251.619 
	421.506,256.8 423.256,256.8 425.778,252.712 428.28,256.8 430.16,256.8 426.797,251.647 "/>
<path fill="#FFFFFF" d="M278.004,20.425c-0.279,0.203-0.628,0.304-1.042,0.304c-0.487,0-0.955-0.089-1.401-0.266v1.469
	c0.451,0.137,0.94,0.205,1.47,0.205c0.606,0,1.122-0.091,1.548-0.273s0.801-0.468,1.125-0.858c0.323-0.39,0.679-1.019,1.066-1.89
	l3.152-7.109h-1.71l-2.25,5.393c-0.108,0.26-0.177,0.449-0.204,0.567h-0.068c-0.05-0.159-0.186-0.476-0.403-0.95l-2.44-5.01h-1.764
	l3.685,7.321C278.538,19.857,278.284,20.222,278.004,20.425"/>
<path fill="#FFFFFF" d="M291.464,21.239c0.627-0.508,0.94-1.211,0.94-2.109c0-0.666-0.165-1.193-0.495-1.583
	c-0.331-0.389-0.848-0.65-1.549-0.782v-0.069c0.564-0.1,0.998-0.343,1.299-0.731c0.301-0.387,0.451-0.873,0.451-1.456
	c0-0.866-0.307-1.5-0.919-1.901c-0.613-0.4-1.608-0.601-2.984-0.601h-2.967v9.994h3.609
	C289.966,22.001,290.838,21.747,291.464,21.239 M286.874,13.374h1.415c0.738,0,1.277,0.105,1.617,0.315
	c0.339,0.209,0.509,0.549,0.509,1.018c0,0.52-0.157,0.888-0.472,1.104c-0.314,0.216-0.813,0.325-1.497,0.325h-1.572V13.374z
	 M286.874,20.627v-3.165h1.654c0.725,0,1.265,0.125,1.62,0.376c0.355,0.25,0.533,0.636,0.533,1.155c0,0.565-0.175,0.979-0.522,1.241
	c-0.35,0.262-0.865,0.393-1.549,0.393H286.874z"/>
<polygon fill="#FFFFFF" points="300.136,20.613 296.115,20.613 296.115,17.476 299.883,17.476 299.883,16.108 296.115,16.108 
	296.115,13.387 300.136,13.387 300.136,12.007 294.482,12.007 294.482,22.001 300.136,22.001 "/>
<path fill="#FFFFFF" d="M303.54,21.56c0.392-0.413,0.696-1.145,0.913-2.198c0.216-1.052,0.504-3.037,0.864-5.954h2.844v8.593h1.634
	v-9.994h-5.838c-0.305,2.374-0.568,4.236-0.79,5.585c-0.221,1.349-0.423,2.22-0.608,2.614c-0.185,0.395-0.44,0.592-0.769,0.592
	c-0.246,0-0.499-0.057-0.759-0.171v1.36c0.301,0.114,0.617,0.171,0.95,0.171C302.628,22.172,303.148,21.973,303.54,21.56"/>
<path fill="#FFFFFF" d="M319.475,13.976h0.055c-0.087,1.125-0.13,2.083-0.13,2.871V22h1.504v-9.994h-1.907l-5.106,7.964h-0.062
	c0.014-0.196,0.034-0.571,0.062-1.124c0.027-0.554,0.041-1.102,0.041-1.644v-5.196h-1.497V22h1.914L319.475,13.976z"/>
<path fill="#FFFFFF" d="M326.105,18.624c0.488,0,0.972-0.048,1.453-0.144c0.48-0.095,1.028-0.252,1.644-0.471v3.992h1.641v-9.994
	h-1.641v4.688c-0.584,0.196-1.08,0.334-1.49,0.414c-0.41,0.079-0.831,0.119-1.265,0.119c-0.588,0-1.011-0.127-1.268-0.382
	c-0.258-0.256-0.386-0.643-0.386-1.162v-3.678h-1.642v4.06c0,0.816,0.256,1.446,0.77,1.89
	C324.435,18.402,325.162,18.624,326.105,18.624"/>
<path fill="#FFFFFF" d="M340.516,13.976h0.055c-0.087,1.125-0.13,2.083-0.13,2.871V22h1.504v-9.994h-1.908l-5.105,7.964h-0.062
	c0.014-0.196,0.034-0.571,0.062-1.124c0.027-0.554,0.041-1.102,0.041-1.644v-5.196h-1.497V22h1.914L340.516,13.976z"/>
<polygon fill="#FFFFFF" points="346.381,22.001 348.015,22.001 348.015,13.408 350.954,13.408 350.954,12.007 343.441,12.007 
	343.441,13.408 346.381,13.408 "/>
<polygon fill="#FFFFFF" points="358.139,20.613 354.119,20.613 354.119,17.476 357.886,17.476 357.886,16.108 354.119,16.108 
	354.119,13.387 358.139,13.387 358.139,12.007 352.485,12.007 352.485,22.001 358.139,22.001 "/>
<path fill="#FFFFFF" d="M280.571,30.064c0.415,0,0.81,0.061,1.186,0.181c0.376,0.121,0.732,0.261,1.07,0.421l0.588-1.361
	c-0.866-0.428-1.809-0.642-2.83-0.642c-0.971,0-1.816,0.207-2.536,0.622c-0.721,0.415-1.271,1.011-1.65,1.791
	c-0.381,0.779-0.571,1.688-0.571,2.727c0,1.65,0.392,2.918,1.176,3.804c0.783,0.887,1.907,1.33,3.37,1.33
	c0.993,0,1.882-0.148,2.666-0.444v-1.402c-0.429,0.133-0.841,0.241-1.238,0.325c-0.396,0.085-0.806,0.127-1.229,0.127
	c-0.98,0-1.729-0.315-2.246-0.944c-0.517-0.629-0.775-1.556-0.775-2.782c0-1.171,0.269-2.089,0.807-2.755
	C278.895,30.397,279.632,30.064,280.571,30.064"/>
<path fill="#FFFFFF" d="M291.416,38.039c0.627-0.508,0.94-1.211,0.94-2.109c0-0.665-0.165-1.193-0.495-1.583
	c-0.331-0.389-0.847-0.65-1.549-0.782v-0.069c0.564-0.1,0.998-0.343,1.299-0.731c0.301-0.387,0.451-0.873,0.451-1.456
	c0-0.866-0.307-1.499-0.919-1.901c-0.613-0.4-1.608-0.601-2.984-0.601h-2.967v9.994h3.609
	C289.918,38.801,290.79,38.547,291.416,38.039 M286.826,30.174h1.415c0.738,0,1.277,0.105,1.617,0.315
	c0.339,0.209,0.509,0.549,0.509,1.018c0,0.52-0.157,0.888-0.472,1.105c-0.314,0.216-0.813,0.324-1.497,0.324h-1.572V30.174z
	 M286.826,37.427v-3.165h1.654c0.725,0,1.265,0.125,1.62,0.376s0.533,0.636,0.533,1.155c0,0.566-0.175,0.979-0.522,1.241
	c-0.35,0.262-0.865,0.393-1.549,0.393H286.826z"/>
<path fill="#FFFFFF" d="M298.632,38.938c1.49,0,2.643-0.452,3.455-1.354c0.814-0.902,1.221-2.167,1.221-3.794
	c0-1.631-0.405-2.896-1.217-3.794c-0.811-0.897-1.96-1.347-3.445-1.347c-1.509,0-2.669,0.443-3.483,1.327
	c-0.812,0.884-1.22,2.151-1.22,3.8c0,1.65,0.403,2.923,1.214,3.819C295.965,38.49,297.123,38.938,298.632,38.938 M296.427,31.001
	c0.499-0.633,1.238-0.95,2.219-0.95c0.971,0,1.7,0.317,2.19,0.95c0.49,0.634,0.735,1.563,0.735,2.789
	c0,1.244-0.247,2.181-0.742,2.81c-0.494,0.629-1.227,0.943-2.197,0.943c-0.976,0-1.712-0.318-2.208-0.954
	c-0.497-0.635-0.746-1.568-0.746-2.799C295.678,32.564,295.928,31.635,296.427,31.001"/>
<path fill="#FFFFFF" d="M316.973,30.003c-0.774-0.902-1.866-1.354-3.274-1.354c-1.299,0-2.327,0.365-3.083,1.094
	c-0.756,0.73-1.199,1.78-1.326,3.152h-2.201v-4.088h-1.634v9.994h1.634v-4.505h2.174c0.077,1.477,0.498,2.62,1.262,3.428
	c0.763,0.809,1.821,1.214,3.175,1.214c1.413,0,2.505-0.45,3.278-1.351c0.771-0.899,1.158-2.165,1.158-3.797
	C318.135,32.168,317.747,30.905,316.973,30.003 M315.742,36.586c-0.456,0.638-1.142,0.957-2.058,0.957
	c-0.902,0-1.583-0.316-2.044-0.95c-0.461-0.633-0.69-1.568-0.69-2.803c0-1.225,0.232-2.155,0.697-2.789
	c0.465-0.633,1.152-0.95,2.064-0.95c0.889,0,1.563,0.314,2.023,0.943c0.461,0.629,0.69,1.561,0.69,2.796
	C316.426,35.016,316.198,35.948,315.742,36.586"/>
<path fill="#FFFFFF" d="M330.351,32.764c0.301-0.387,0.451-0.872,0.451-1.456c0-0.865-0.307-1.499-0.919-1.9
	c-0.613-0.401-1.608-0.602-2.984-0.602h-2.967V38.8h3.609c1.117,0,1.988-0.253,2.615-0.762c0.626-0.508,0.939-1.211,0.939-2.109
	c0-0.665-0.165-1.193-0.496-1.582c-0.33-0.39-0.846-0.651-1.548-0.783v-0.068C329.617,33.396,330.05,33.152,330.351,32.764
	 M329.373,35.793c0,0.565-0.174,0.979-0.523,1.24c-0.348,0.263-0.864,0.393-1.548,0.393h-1.736v-3.165h1.654
	c0.725,0,1.265,0.126,1.62,0.376C329.195,34.888,329.373,35.273,329.373,35.793 M328.635,32.611
	c-0.314,0.216-0.812,0.324-1.497,0.324h-1.572v-2.762h1.415c0.738,0,1.277,0.105,1.616,0.315c0.34,0.21,0.51,0.549,0.51,1.019
	C329.106,32.026,328.949,32.395,328.635,32.611"/>
<path fill="#FFFFFF" d="M335.594,28.765l-3.739,10.036h1.723l0.978-2.776h3.821l0.998,2.776h1.736l-3.739-10.036H335.594z
	 M335.033,34.617l0.902-2.604c0.236-0.666,0.417-1.279,0.54-1.839c0.046,0.182,0.129,0.469,0.25,0.861
	c0.119,0.392,0.215,0.679,0.283,0.861l0.937,2.721H335.033z"/>
<path fill="#FFFFFF" d="M345.308,28.807h-2.878v9.994h1.634v-3.739h1.039c1.262,0,2.235-0.278,2.919-0.834s1.025-1.356,1.025-2.4
	c0-0.993-0.312-1.745-0.934-2.256C347.491,29.062,346.557,28.807,345.308,28.807 M346.777,33.25
	c-0.392,0.292-1.007,0.437-1.846,0.437h-0.868v-3.513h1.135c0.743,0,1.289,0.141,1.641,0.424c0.351,0.282,0.526,0.711,0.526,1.285
	C347.365,32.503,347.169,32.958,346.777,33.25"/>
<path fill="#FFFFFF" d="M358.009,38.801h1.504v-9.994h-1.907l-5.106,7.964h-0.062c0.014-0.196,0.034-0.571,0.062-1.125
	c0.027-0.553,0.041-1.101,0.041-1.644v-5.195h-1.497v9.994h1.914l5.127-8.025h0.055c-0.087,1.126-0.13,2.083-0.13,2.871V38.801z"/>
<path fill="#FFFFFF" d="M363.512,36.026h3.821l0.998,2.775h1.736l-3.739-10.035h-1.777l-3.739,10.035h1.723L363.512,36.026z
	 M364.893,32.013c0.237-0.665,0.417-1.278,0.54-1.839c0.045,0.183,0.129,0.47,0.25,0.861c0.12,0.393,0.215,0.68,0.283,0.862
	l0.937,2.72h-2.912L364.893,32.013z"/>
<polygon fill="#FFFFFF" points="373.205,38.801 374.839,38.801 374.839,30.208 377.778,30.208 377.778,28.807 370.266,28.807 
	370.266,30.208 373.205,30.208 "/>
<path fill="#FFFFFF" d="M386.351,30.775h0.055c-0.087,1.126-0.13,2.083-0.13,2.871V38.8h1.504v-9.994h-1.908l-5.105,7.964h-0.062
	c0.014-0.196,0.034-0.571,0.062-1.124c0.027-0.554,0.041-1.102,0.041-1.644v-5.196h-1.497V38.8h1.914L386.351,30.775z"/>
<path fill="#FFFFFF" d="M396.621,38.039c0.627-0.508,0.94-1.211,0.94-2.109c0-0.665-0.165-1.193-0.495-1.583
	c-0.331-0.389-0.848-0.65-1.549-0.782v-0.069c0.564-0.1,0.998-0.343,1.299-0.731c0.301-0.387,0.451-0.873,0.451-1.456
	c0-0.866-0.307-1.499-0.919-1.901c-0.613-0.4-1.608-0.601-2.984-0.601h-2.967v9.994h3.609
	C395.123,38.801,395.995,38.547,396.621,38.039 M392.031,30.174h1.415c0.738,0,1.277,0.105,1.617,0.315
	c0.339,0.209,0.509,0.549,0.509,1.018c0,0.52-0.157,0.888-0.472,1.105c-0.314,0.216-0.813,0.324-1.497,0.324h-1.572V30.174z
	 M392.031,37.427v-3.165h1.654c0.725,0,1.265,0.125,1.619,0.376c0.356,0.251,0.534,0.636,0.534,1.155
	c0,0.566-0.175,0.979-0.522,1.241c-0.35,0.262-0.865,0.393-1.549,0.393H392.031z"/>
<polygon fill="#FFFFFF" points="401.273,34.296 405.881,34.296 405.881,38.801 407.521,38.801 407.521,28.807 405.881,28.807 
	405.881,32.895 401.273,32.895 401.273,28.807 399.64,28.807 399.64,38.801 401.273,38.801 "/>
<path fill="#FFFFFF" d="M414.351,38.938c1.49,0,2.643-0.452,3.455-1.354c0.814-0.902,1.221-2.167,1.221-3.794
	c0-1.631-0.405-2.896-1.217-3.794c-0.812-0.897-1.96-1.347-3.445-1.347c-1.508,0-2.669,0.443-3.483,1.327
	c-0.812,0.884-1.22,2.151-1.22,3.8c0,1.65,0.404,2.923,1.214,3.819C411.684,38.49,412.842,38.938,414.351,38.938 M412.146,31.001
	c0.498-0.633,1.237-0.95,2.218-0.95c0.971,0,1.701,0.317,2.19,0.95c0.49,0.634,0.735,1.563,0.735,2.789
	c0,1.244-0.247,2.181-0.742,2.81c-0.494,0.629-1.227,0.943-2.197,0.943c-0.976,0-1.712-0.318-2.208-0.954
	c-0.496-0.635-0.746-1.568-0.746-2.799C411.396,32.564,411.646,31.635,412.146,31.001"/>
<path fill="#FFFFFF" d="M425.227,38.938c0.994,0,1.882-0.148,2.666-0.444v-1.402c-0.428,0.133-0.841,0.241-1.237,0.325
	s-0.807,0.126-1.23,0.126c-0.98,0-1.729-0.314-2.245-0.943c-0.518-0.629-0.776-1.556-0.776-2.782c0-1.171,0.27-2.089,0.807-2.755
	c0.538-0.665,1.275-0.998,2.215-0.998c0.415,0,0.81,0.06,1.186,0.181s0.733,0.261,1.07,0.421l0.588-1.361
	c-0.866-0.428-1.809-0.642-2.83-0.642c-0.971,0-1.815,0.207-2.536,0.622c-0.72,0.415-1.271,1.011-1.65,1.791
	c-0.381,0.779-0.571,1.688-0.571,2.727c0,1.65,0.392,2.918,1.176,3.804C422.641,38.495,423.764,38.938,425.227,38.938"/>
<polygon fill="#FFFFFF" points="428.925,30.208 431.864,30.208 431.864,38.801 433.498,38.801 433.498,30.208 436.438,30.208 
	436.438,28.807 428.925,28.807 "/>
<path fill="#FFFFFF" d="M443.927,33.623c-0.673-0.503-1.643-0.755-2.909-0.755h-1.415v-4.061h-1.634V38.8h3.117
	c1.248,0,2.202-0.256,2.86-0.768c0.659-0.513,0.988-1.26,0.988-2.24C444.935,34.85,444.599,34.126,443.927,33.623 M442.669,37.041
	c-0.395,0.258-0.958,0.386-1.692,0.386h-1.374v-3.192h1.19c0.888,0,1.521,0.125,1.899,0.376c0.378,0.251,0.567,0.645,0.567,1.182
	C443.26,36.368,443.062,36.784,442.669,37.041"/>
</svg>
